<?xml version="1.0" standalone="no"?>
<!DOCTYPE svg PUBLIC "-//W3C//DTD SVG 20010904//EN"
 "http://www.w3.org/TR/2001/REC-SVG-20010904/DTD/svg10.dtd">
<svg version="1.0" xmlns="http://www.w3.org/2000/svg"
 width="90.000000pt" height="90.000000pt" viewBox="0 0 90.000000 90.000000"
 preserveAspectRatio="xMidYMid meet">

<g transform="translate(0.000000,90.000000) scale(0.100000,-0.100000)"
fill="#70C5FE" stroke="none">
<path d="M405 771 c-45 -20 -70 -60 -70 -112 0 -42 5 -53 33 -81 28 -28 39
-33 82 -33 43 0 54 5 82 33 28 28 33 39 33 82 0 42 -5 54 -31 81 -33 33 -92
46 -129 30z"/>
<path d="M135 651 c-44 -19 -70 -60 -70 -111 0 -51 27 -93 70 -110 18 -6 16
-8 -11 -14 -17 -4 -44 -21 -60 -37 -27 -28 -29 -35 -29 -112 l0 -82 415 0 415
0 0 82 c0 77 -2 84 -29 112 -16 16 -43 33 -60 37 -27 6 -29 8 -11 14 43 17 70
59 70 111 0 42 -5 53 -33 81 -28 28 -39 33 -82 33 -43 0 -54 -5 -82 -33 -28
-28 -33 -39 -33 -82 0 -40 5 -54 29 -79 17 -17 37 -31 45 -32 9 0 0 -6 -19
-13 -33 -12 -36 -11 -61 15 -36 39 -68 49 -150 49 -75 0 -120 -16 -154 -55
-19 -21 -22 -22 -55 -10 -19 8 -28 14 -19 14 8 1 28 15 45 32 24 25 29 39 29
79 0 42 -5 54 -31 81 -33 33 -92 46 -129 30z m85 -71 c11 -11 20 -29 20 -40 0
-26 -34 -60 -60 -60 -26 0 -60 34 -60 60 0 26 34 60 60 60 11 0 29 -9 40 -20z
m540 0 c11 -11 20 -29 20 -40 0 -26 -34 -60 -60 -60 -11 0 -29 9 -40 20 -11
11 -20 29 -20 40 0 11 9 29 20 40 11 11 29 20 40 20 11 0 29 -9 40 -20z m-510
-240 c13 -13 20 -33 20 -60 l0 -40 -90 0 -90 0 0 40 c0 57 26 80 90 80 37 0
55 -5 70 -20z m540 0 c13 -13 20 -33 20 -60 l0 -40 -90 0 -90 0 0 40 c0 57 26
80 90 80 37 0 55 -5 70 -20z"/>
</g>
</svg>
