<?xml version="1.0" standalone="no"?>
<!DOCTYPE svg PUBLIC "-//W3C//DTD SVG 20010904//EN"
 "http://www.w3.org/TR/2001/REC-SVG-20010904/DTD/svg10.dtd">
<svg version="1.0" xmlns="http://www.w3.org/2000/svg"
 width="430.000000pt" height="512.000000pt" viewBox="0 0 430.000000 512.000000"
 preserveAspectRatio="xMidYMid meet">

<g transform="translate(0.000000,512.000000) scale(0.100000,-0.100000)"
fill="#000000" stroke="none">
<path d="M1918 5088 c-18 -19 -45 -48 -60 -64 -16 -19 -61 -45 -115 -67 -292
-121 -482 -325 -544 -583 -20 -83 -21 -111 -17 -396 l3 -308 -26 -10 c-95 -40
-136 -180 -90 -311 28 -82 52 -125 189 -344 168 -268 251 -390 311 -463 l51
-61 -39 -108 c-63 -177 -68 -184 -159 -226 -102 -46 -222 -82 -513 -150 -381
-90 -473 -127 -606 -239 -83 -69 -138 -141 -189 -243 -94 -191 -122 -427 -94
-810 6 -77 14 -230 19 -340 7 -173 11 -205 28 -240 47 -90 102 -117 251 -123
61 -2 112 -1 112 4 0 5 -39 306 -86 669 -58 440 -85 673 -80 698 8 45 49 95
93 113 26 12 194 14 927 14 l895 0 -11 33 c-19 54 -152 175 -318 289 -169 115
-238 172 -259 211 -12 23 -10 33 32 119 24 51 55 123 68 161 13 37 28 67 32
67 5 0 23 -11 40 -24 56 -43 179 -95 267 -112 151 -30 324 -5 464 66 l73 37
27 -43 c15 -23 58 -84 96 -136 39 -51 70 -103 70 -114 0 -32 -45 -75 -130
-124 -41 -23 -106 -61 -145 -83 -131 -76 -228 -193 -253 -305 l-10 -42 859 0
c703 0 866 -2 892 -14 43 -17 85 -68 93 -111 4 -21 -27 -284 -80 -687 -47
-359 -86 -661 -86 -670 0 -16 11 -18 88 -18 106 0 180 20 226 61 66 58 66 59
69 609 2 439 0 506 -16 590 -50 268 -157 448 -332 564 -103 69 -180 93 -655
206 -173 41 -276 73 -372 117 -77 35 -78 36 -163 155 l-85 120 60 65 c80 87
166 215 354 526 177 293 212 377 204 487 -5 67 -25 103 -77 135 l-32 20 6 240
c7 257 -1 365 -36 494 -36 135 -121 273 -224 363 -197 174 -604 340 -890 365
l-74 6 -33 -35z m31 -1024 c58 -8 212 -42 342 -74 130 -33 280 -67 333 -75 96
-16 347 -22 379 -9 9 3 17 3 17 0 0 -8 -69 -315 -76 -338 -5 -16 3 -18 78 -18
110 0 132 -12 136 -71 5 -71 -32 -152 -173 -384 -182 -299 -202 -330 -272
-427 -165 -226 -356 -329 -584 -315 -200 12 -358 111 -511 318 -85 115 -399
617 -425 679 -29 71 -30 148 -3 182 21 28 84 48 149 48 50 0 48 -15 20 231
-17 149 -18 184 -7 191 22 14 144 49 220 63 101 18 250 18 377 -1z"/>
<path d="M1191 1057 c-58 -20 -75 -54 -81 -166 -5 -103 -15 -127 -53 -133 -20
-3 -22 -10 -25 -70 -3 -63 -1 -68 18 -68 11 0 29 -9 40 -20 17 -17 20 -33 20
-105 0 -147 33 -185 160 -185 l60 0 0 64 0 65 -32 3 c-38 4 -45 22 -47 113 -1
62 -28 125 -53 125 -6 0 1 13 16 29 25 26 30 41 37 116 8 93 19 115 55 115 23
0 24 3 24 65 l0 65 -52 -1 c-29 0 -68 -5 -87 -12z"/>
<path d="M2970 1006 c0 -63 1 -66 24 -66 36 0 47 -22 55 -115 7 -75 12 -90 37
-116 15 -16 23 -29 16 -29 -26 0 -47 -55 -53 -138 -7 -88 -15 -102 -56 -102
-22 0 -23 -4 -23 -65 l0 -65 60 0 c127 0 160 38 160 185 0 72 3 88 20 105 11
11 29 20 40 20 19 0 21 5 18 68 -3 61 -5 67 -25 70 -39 6 -53 39 -53 125 0
137 -32 176 -150 185 l-70 5 0 -67z"/>
<path d="M1490 691 l0 -341 163 0 c254 0 250 -6 245 352 -3 222 -4 238 -24
265 -37 50 -66 58 -231 61 l-153 4 0 -341z m228 3 c2 -188 1 -210 -15 -221 -9
-7 -20 -13 -25 -13 -4 0 -8 103 -8 230 l0 229 23 -8 c22 -8 22 -11 25 -217z"/>
<path d="M2000 690 l0 -340 155 0 155 0 0 65 0 65 -65 0 -65 0 0 74 0 75 53 3
52 3 3 63 3 62 -56 0 -55 0 0 70 0 70 60 0 60 0 0 65 0 65 -150 0 -150 0 0
-340z"/>
<path d="M2350 1026 c0 -3 23 -154 50 -336 28 -182 50 -333 50 -336 0 -2 62
-3 137 -2 l137 3 43 320 c23 176 42 328 43 338 0 15 -11 17 -93 17 l-94 0 -17
-197 c-9 -109 -17 -211 -17 -228 -1 -16 -3 -23 -5 -15 -4 16 -44 405 -44 427
0 10 -24 13 -95 13 -52 0 -95 -2 -95 -4z"/>
</g>
</svg>
